<?xml version="1.0" encoding="UTF-8"?>
<svg width="142px" height="90px" viewBox="0 0 142 90" version="1.1" xmlns="http://www.w3.org/2000/svg" xmlns:xlink="http://www.w3.org/1999/xlink">
    <!-- Generator: Sketch 52.4 (67378) - http://www.bohemiancoding.com/sketch -->
    <title>Artboard</title>
    <desc>Created with Sketch.</desc>
    <g id="Artboard" stroke="none" stroke-width="1" fill="none" fill-rule="evenodd">
        <g id="Logo-Copy" transform="translate(1.000000, 1.000000)">
            <g id="Group" fill="#FFFFFF">
                <polygon id="Path" points="140 40.4855172 122.378171 59.4124138 122.175811 59.6317241 110.376991 59.6317241 128.20531 40.4855172"></polygon>
                <rect id="Rectangle" x="128.20531" y="1.21241379" width="11.7946903" height="39.2731034"></rect>
                <polygon id="Path" points="128.20531 1.21241379 128.20531 40.4855172 110.376991 59.6317241 110.376991 20.5531034 110.376991 20.3586207"></polygon>
                <path d="M95.6171091,0.231724138 L107.411799,0.231724138 L107.411799,25.9158621 C107.411799,28.8537931 107.081416,31.2744828 106.40413,33.3186207 L106.305015,33.5834483 C105.726844,34.9655172 104.905015,36.1944828 103.851917,37.2413793 C103.418289,37.6758621 102.943363,38.0813793 102.431268,38.4537931 L102.080236,38.6813793 C99.9864307,39.8772414 97.7109145,40.4855172 95.3156342,40.4855172 C91.7433628,40.4855172 88.819469,39.6082759 86.6224189,37.8786207 C84.3014749,36.0951724 83.0584071,33.4717241 83.0584071,30.3268966 L83.0584071,26.5406897 L95.5179941,26.5406897 L95.3651917,29.6234483 C95.4684366,29.1103448 95.6171091,27.9806897 95.6171091,25.7503448 L95.6171091,0.231724138 Z" id="Path"></path>
                <path d="M102.080236,38.6813793 L102.431268,38.4537931 C102.943363,38.0813793 103.418289,37.6758621 103.851917,37.2413793 L86.5522124,55.8248276 C85.9823009,56.4786207 85.3339233,57.0703448 84.6070796,57.6 L84.2560472,57.8275862 C82.1581121,59.0234483 79.8825959,59.6317241 77.4914454,59.6317241 C73.919174,59.6317241 70.9952802,58.7544828 68.7982301,57.0248276 C66.4772861,55.2413793 65.2342183,52.617931 65.2342183,49.4731034 L65.2342183,45.6868966 L65.4861357,45.417931 L77.7887906,32.2013793 L83.0584071,26.5406897 L83.0584071,30.3268966 C83.0584071,33.4717241 84.3014749,36.0951724 86.6224189,37.8786207 C88.819469,39.6082759 91.7433628,40.4855172 95.3156342,40.4855172 C97.7109145,40.4855172 99.9864307,39.8772414 102.080236,38.6813793 Z" id="Path"></path>
                <path d="M95.6171091,0.231724138 L95.6171091,25.7503448 C95.6171091,27.9806897 95.4684366,29.1103448 95.3651917,29.6234483 L95.5179941,26.5406897 L83.0584071,26.5406897 L77.7887906,32.2013793 L77.7887906,19.377931 L95.6171091,0.231724138 Z" id="Path"></path>
                <path d="M70.5410029,0.231724138 L70.5410029,25.9158621 C70.5410029,28.8537931 70.2106195,31.2744828 69.5333333,33.3186207 L69.4300885,33.5834483 C68.9510324,34.737931 68.2985251,35.7806897 67.480826,36.7075862 L67.0719764,37.1503448 L67.0306785,37.1917241 C66.5846608,37.6427586 66.0932153,38.0648276 65.560472,38.4537931 L65.2094395,38.6813793 C63.1115044,39.8772414 60.8359882,40.4855172 58.4448378,40.4855172 C54.8725664,40.4855172 51.9486726,39.6082759 49.7516224,37.8786207 C47.4306785,36.0951724 46.1876106,33.4717241 46.1876106,30.3268966 L46.1876106,26.5406897 L58.6430678,26.5406897 L58.4943953,29.6234483 C58.5935103,29.1103448 58.7463127,27.9806897 58.7463127,25.7503448 L58.7463127,0.231724138 L70.5410029,0.231724138 Z" id="Path"></path>
                <path d="M67.0719764,37.1503448 L67.480826,36.7075862 C67.3486726,36.8565517 67.2123894,37.0055172 67.0719764,37.1503448 Z" id="Path"></path>
                <path d="M65.2094395,38.6813793 L65.560472,38.4537931 C66.0932153,38.0648276 66.5846608,37.6427586 67.0306785,37.1917241 L49.6814159,55.8248276 C49.1115044,56.4786207 48.4631268,57.0703448 47.7321534,57.6 L47.3811209,57.8275862 C45.2873156,59.0234483 43.0117994,59.6317241 40.6165192,59.6317241 C37.0483776,59.6317241 34.120354,58.7544828 31.9233038,57.0248276 C29.6023599,55.2413793 28.359292,52.617931 28.359292,49.4731034 L28.359292,45.6868966 L28.6112094,45.417931 L40.9179941,32.2013793 L46.1876106,26.5406897 L46.1876106,30.3268966 C46.1876106,33.4717241 47.4306785,36.0951724 49.7516224,37.8786207 C51.9486726,39.6082759 54.8725664,40.4855172 58.4448378,40.4855172 C60.8359882,40.4855172 63.1115044,39.8772414 65.2094395,38.6813793 Z" id="Path"></path>
                <path d="M40.9179941,32.2013793 L40.9179941,19.377931 L58.7463127,0.231724138 L58.7463127,25.7503448 C58.7463127,27.9806897 58.5935103,29.1103448 58.4943953,29.6234483 L58.6430678,26.5406897 L46.1876106,26.5406897 L40.9179941,32.2013793 Z" id="Path"></path>
                <polygon id="Path" points="29.6230088 40.4855172 11.9970501 59.4124138 11.7946903 59.6317241 0 59.6317241 17.8241888 40.4855172"></polygon>
                <rect id="Rectangle" x="17.8241888" y="1.21241379" width="11.7988201" height="39.2731034"></rect>
                <polygon id="Path" points="17.8241888 1.21241379 17.8241888 40.4855172 0 59.6317241 0 20.5531034 0 20.3586207"></polygon>
            </g>
            <g id="Group" stroke="#000000" stroke-width="1.5">
                <rect id="Rectangle" stroke-linejoin="round" x="17.8241888" y="1.21241379" width="11.7988201" height="39.2731034"></rect>
                <polyline id="Path" stroke-linejoin="round" points="29.6230088 40.4855172 11.9970501 59.4124138 11.7946903 59.6317241 0 59.6317241 0 20.5531034 0 20.3586207 17.8241888 1.21241379"></polyline>
                <path d="M0,59.6317241 L17.8241888,40.4855172" id="Path" stroke-linejoin="round"></path>
                <path d="M40.9179941,32.2013793 L40.9179941,19.377931" id="Path"></path>
                <path d="M67.0306785,37.1917241 C66.5846608,37.6427586 66.0932153,38.0648276 65.560472,38.4537931 L65.2094395,38.6813793 C63.1115044,39.8772414 60.8359882,40.4855172 58.4448378,40.4855172 C54.8725664,40.4855172 51.9486726,39.6082759 49.7516224,37.8786207 C47.4306785,36.0951724 46.1876106,33.4717241 46.1876106,30.3268966 L46.1876106,26.5406897 L58.6430678,26.5406897" id="Path" stroke-linejoin="round"></path>
                <path d="M58.4943953,29.6234483 C58.5935103,29.1103448 58.7463127,27.9806897 58.7463127,25.7503448 L58.7463127,0.231724138 L70.5410029,0.231724138 L70.5410029,25.9158621 C70.5410029,28.8537931 70.2106195,31.2744828 69.5333333,33.3186207 L69.4300885,33.5834483 C68.9510324,34.737931 68.2985251,35.7806897 67.480826,36.7075862 C67.3486726,36.8565517 67.2123894,37.0055172 67.0719764,37.1503448" id="Path" stroke-linejoin="round"></path>
                <path d="M49.6814159,55.8248276 C49.1115044,56.4786207 48.4631268,57.0703448 47.7321534,57.6" id="Path" stroke-linejoin="round"></path>
                <path d="M40.9179941,19.377931 L58.7463127,0.231724138" id="Path" stroke-linecap="round"></path>
                <path d="M47.7321534,57.6 L47.3811209,57.8275862 C45.2873156,59.0234483 43.0117994,59.6317241 40.6165192,59.6317241 C37.0483776,59.6317241 34.120354,58.7544828 31.9233038,57.0248276 C29.6023599,55.2413793 28.359292,52.617931 28.359292,49.4731034 L28.359292,45.6868966 L28.6112094,45.417931 L40.9179941,32.2013793 L46.1876106,26.5406897" id="Path" stroke-linecap="round"></path>
                <polyline id="Path" stroke-linecap="round" points="67.480826 36.7075862 67.0719764 37.1503448 67.0306785 37.1917241 49.6814159 55.8248276"></polyline>
                <path d="M77.7887906,32.2013793 L77.7887906,19.377931" id="Path"></path>
                <path d="M95.3651917,29.6234483 C95.4684366,29.1103448 95.6171091,27.9806897 95.6171091,25.7503448 L95.6171091,0.231724138 L107.411799,0.231724138 L107.411799,25.9158621 C107.411799,28.8537931 107.081416,31.2744828 106.40413,33.3186207 L106.305015,33.5834483 C105.726844,34.9655172 104.905015,36.1944828 103.851917,37.2413793 C103.418289,37.6758621 102.943363,38.0813793 102.431268,38.4537931 L102.080236,38.6813793 C99.9864307,39.8772414 97.7109145,40.4855172 95.3156342,40.4855172 C91.7433628,40.4855172 88.819469,39.6082759 86.6224189,37.8786207 C84.3014749,36.0951724 83.0584071,33.4717241 83.0584071,30.3268966 L83.0584071,26.5406897 L95.5179941,26.5406897" id="Path" stroke-linejoin="round"></path>
                <path d="M86.5522124,55.8248276 C85.9823009,56.4786207 85.3339233,57.0703448 84.6070796,57.6" id="Path" stroke-linejoin="round"></path>
                <path d="M77.7887906,19.377931 L95.6171091,0.231724138" id="Path" stroke-linecap="round"></path>
                <path d="M84.6070796,57.6 L84.2560472,57.8275862 C82.1581121,59.0234483 79.8825959,59.6317241 77.4914454,59.6317241 C73.919174,59.6317241 70.9952802,58.7544828 68.7982301,57.0248276 C66.4772861,55.2413793 65.2342183,52.617931 65.2342183,49.4731034 L65.2342183,45.6868966 L65.4861357,45.417931 L77.7887906,32.2013793 L83.0584071,26.5406897" id="Path" stroke-linecap="round"></path>
                <polyline id="Path" stroke-linecap="round" points="104.351622 36.7075862 103.851917 37.2413793 86.5522124 55.8248276"></polyline>
                <rect id="Rectangle" stroke-linejoin="round" x="128.20531" y="1.21241379" width="11.7946903" height="39.2731034"></rect>
                <polyline id="Path" points="140 40.4855172 122.378171 59.4124138 122.175811 59.6317241 110.376991 59.6317241 110.376991 20.5531034 110.376991 20.3586207 128.20531 1.21241379"></polyline>
                <path d="M110.376991,59.6317241 L128.20531,40.4855172" id="Path"></path>
            </g>
        </g>
    </g>
</svg>